<?xml version="1.0" encoding="utf-8"?>
<!-- Generator: Adobe Illustrator 19.2.0, SVG Export Plug-In . SVG Version: 6.00 Build 0)  -->
<svg xmlns="http://www.w3.org/2000/svg" xmlns:xlink="http://www.w3.org/1999/xlink" version="1.1" id="brightnessplus" x="0px" y="0px" viewBox="0 0 210.1422 228" enable-background="new 0 0 210.1422 228" xml:space="preserve" width="128px" height="128px">
<g>
	<path fill="#5CB0FF" d="M119.7476,8c-39.7012,0-72,32.3008-72,72c0,2.9844,0.5,5.9688,1.0312,9.1289l0.332,2.0234   c1.6367,6.0469,6.5059,22.3164,10.2305,28.0469c0.1328,0.2031,0.2461,0.418,0.3379,0.6406L86.4136,184h66.668l26.7344-64.1602   c0.0918-0.2227,0.2051-0.4375,0.3379-0.6406c3.9297-6.043,7.498-18.6641,9.418-25.4453l0.8262-2.8867c0-0.0039,0-0.0039,0-0.0039   c1.3613-4.5977,1.3574-6.5352,1.3516-10.0586L191.7476,80C191.7476,40.3008,159.4487,8,119.7476,8z M151.7476,84h-28v28h-8V84h-28   v-8h28V48h8v28h28V84z M179.7476,84c-2.209,0-4-1.7891-4-4c0-30.8789-25.1211-56-56-56c-2.209,0-4-1.7891-4-4s1.791-4,4-4   c35.2891,0,64,28.7109,64,64C183.7476,82.2109,181.9565,84,179.7476,84z"/>
	<path fill="#1C71DA" d="M199.7476,80c0-44.1133-35.8887-80-80-80s-80,35.8867-80,80c0,3.6484,0.5801,7.1055,1.1406,10.4492   l0.3574,2.1758c0.0215,0.1406,0.0508,0.2773,0.0879,0.4141c0.2422,0.9023,5.9238,21.9219,11.0938,30.1953l27.6289,66.3047   C80.6772,191.0273,82.1323,192,83.7476,192h72c1.6152,0,3.0703-0.9727,3.6914-2.4609l27.627-66.3008   c4.4961-7.1367,8.1992-20.2266,10.2031-27.3047l0.8008-2.8008c1.6934-5.7148,1.6855-8.6406,1.6797-12.3438L199.7476,80z    M190.3979,90.8633c0,0,0,0,0,0.0039l-0.8262,2.8867c-1.9199,6.7812-5.4883,19.4023-9.418,25.4453   c-0.1328,0.2031-0.2461,0.418-0.3379,0.6406L153.0815,184h-66.668l-26.7344-64.1602c-0.0918-0.2227-0.2051-0.4375-0.3379-0.6406   c-3.7246-5.7305-8.5938-22-10.2305-28.0469l-0.332-2.0234c-0.5312-3.1602-1.0312-6.1445-1.0312-9.1289c0-39.6992,32.2988-72,72-72   s72,32.3008,72,72l0.002,0.8047C191.7554,84.3281,191.7593,86.2656,190.3979,90.8633z"/>
	<path fill="#1C71DA" d="M155.8589,196H83.7476c-2.209,0-4,1.7891-4,4s1.791,4,4,4h72.1113c2.209,0,4-1.7891,4-4   S158.0679,196,155.8589,196z"/>
	<path fill="#1C71DA" d="M155.8589,208H83.7476c-2.209,0-4,1.7891-4,4s1.791,4,4,4h72.1113c2.209,0,4-1.7891,4-4   S158.0679,208,155.8589,208z"/>
	<path fill="#1C71DA" d="M155.8589,220H83.7476c-2.209,0-4,1.7891-4,4s1.791,4,4,4h72.1113c2.209,0,4-1.7891,4-4   S158.0679,220,155.8589,220z"/>
	<polygon fill="#1C71DA" points="123.7476,48 115.7476,48 115.7476,76 87.7476,76 87.7476,84 115.7476,84 115.7476,112    123.7476,112 123.7476,84 151.7476,84 151.7476,76 123.7476,76  "/>
	<path fill="#FFFFFF" d="M119.7476,16c-2.209,0-4,1.7891-4,4s1.791,4,4,4c30.8789,0,56,25.1211,56,56c0,2.2109,1.791,4,4,4   s4-1.7891,4-4C183.7476,44.7109,155.0366,16,119.7476,16z"/>
</g>
<path fill="#FF5D5D" d="M192,227.8223c-1.0239,0-2.0474-0.3906-2.8286-1.1719c-1.562-1.5615-1.562-4.0947,0-5.6562l14.1421-14.1426  c1.5625-1.5625,4.0947-1.5625,5.6572,0c1.562,1.5615,1.562,4.0947,0,5.6562l-14.1421,14.1426  C194.0474,227.4316,193.0239,227.8223,192,227.8223z"/>
<path fill="#FF5D5D" d="M206.1421,227.8223c-1.0239,0-2.0474-0.3906-2.8286-1.1719l-14.1421-14.1416  c-1.562-1.5615-1.562-4.0947,0-5.6562c1.5625-1.5625,4.0947-1.5625,5.6572,0l14.1421,14.1416c1.562,1.5615,1.562,4.0947,0,5.6562  C208.1895,227.4316,207.166,227.8223,206.1421,227.8223z"/>
<path fill="#00D40B" d="M14,195.8223c-7.7197,0-14-6.2803-14-14s6.2803-14,14-14s14,6.2803,14,14S21.7197,195.8223,14,195.8223z   M14,175.8223c-3.3086,0-6,2.6914-6,6s2.6914,6,6,6s6-2.6914,6-6S17.3086,175.8223,14,175.8223z"/>
<path fill="#FFC504" d="M91.3135,62.4492c-1.0239,0-2.0474-0.3906-2.8286-1.1719L77.1714,49.9639  c-1.562-1.5615-1.562-4.0947,0-5.6562l11.3135-11.3135c1.5625-1.5625,4.0952-1.5625,5.6567,0l11.314,11.3135  c0.7505,0.75,1.1719,1.7676,1.1719,2.8281s-0.4214,2.0781-1.1719,2.8281l-11.314,11.3135  C93.3608,62.0586,92.3369,62.4492,91.3135,62.4492z M85.6567,47.1357l5.6567,5.6562l5.6572-5.6562l-5.6572-5.6562L85.6567,47.1357z"/>
</svg>
